<?xml version="1.0" encoding="iso-8859-1"?>
<!-- Generator: Adobe Illustrator 19.0.0, SVG Export Plug-In . SVG Version: 6.00 Build 0)  -->
<svg version="1.1" id="Capa_1" xmlns="http://www.w3.org/2000/svg" xmlns:xlink="http://www.w3.org/1999/xlink" x="0px" y="0px"
	 viewBox="0 0 512 512" style="enable-background:new 0 0 512 512;" xml:space="preserve">
<g>
	<path style="fill:#E4EAF8;" d="M447.241,55.328h-75.466v25.037h69.605v114.138c0,42.625-34.677,77.303-77.303,77.303h-11.239
		c-6.758,9.475-14.874,17.913-24.061,25.037h35.3c56.43,0,102.34-45.909,102.34-102.34V74.505
		C466.417,63.93,457.815,55.328,447.241,55.328z"/>
	<path style="fill:#E4EAF8;" d="M159.162,271.806h-11.239c-42.625,0-77.303-34.677-77.303-77.303V80.365h69.606V55.328H64.76
		c-10.575,0-19.177,8.602-19.177,19.177v119.999c0,56.43,45.909,102.34,102.34,102.34h35.3
		C174.036,289.719,165.919,281.281,159.162,271.806z"/>
</g>
<path style="fill:#F9B428;" d="M256,322.759L256,322.759c-12.794,0-25.112-2.029-36.66-5.77l-19.059,88.616
	c15.59,0,95.893,0,111.438,0l-19.059-88.616C281.113,320.73,268.795,322.759,256,322.759z"/>
<path style="fill:#FFC850;" d="M137.135,31.596v174.358c0,65.647,53.218,118.865,118.865,118.865l0,0
	c65.647,0,118.865-53.218,118.865-118.865V31.596H137.135z"/>
<path style="fill:#E59F23;" d="M219.34,316.989l-19.059,88.616h20.605l18.084-84.082C232.23,320.553,225.666,319.038,219.34,316.989
	z"/>
<path style="fill:#F9B428;" d="M157.74,205.954V31.596h-20.605v174.358c0,65.647,53.218,118.865,118.865,118.865l0,0
	c3.472,0,6.906-0.158,10.302-0.449C205.48,319.147,157.74,268.13,157.74,205.954z"/>
<path style="fill:#FC932B;" d="M258.688,85.811l15.863,32.143c0.437,0.885,1.281,1.498,2.257,1.64l35.471,5.154
	c2.459,0.357,3.441,3.379,1.661,5.113l-25.667,25.02c-0.707,0.689-1.029,1.681-0.862,2.653l6.059,35.328
	c0.42,2.449-2.15,4.316-4.35,3.16l-31.727-16.68c-0.873-0.459-1.917-0.459-2.79,0l-31.727,16.68c-2.199,1.156-4.77-0.711-4.349-3.16
	l6.059-35.328c0.167-0.972-0.156-1.965-0.862-2.653l-25.667-25.02c-1.779-1.734-0.797-4.756,1.661-5.113l35.471-5.154
	c0.976-0.142,1.82-0.755,2.257-1.64l15.863-32.143C254.412,83.583,257.589,83.583,258.688,85.811z"/>
<path style="fill:#E87B18;" d="M243.474,157.533c0.167-0.972-0.156-1.965-0.862-2.653l-25.668-25.019
	c-1.779-1.734-0.797-4.756,1.662-5.113l35.471-5.154c0.976-0.142,1.821-0.755,2.257-1.64l9.108-18.456l-6.755-13.687
	c-1.1-2.228-4.277-2.228-5.376,0l-15.863,32.143c-0.437,0.885-1.281,1.498-2.257,1.64l-35.471,5.154
	c-2.459,0.357-3.441,3.379-1.662,5.113l25.668,25.019c0.706,0.689,1.029,1.681,0.862,2.653l-6.059,35.328
	c-0.42,2.449,2.15,4.316,4.35,3.16l15.381-8.086L243.474,157.533z"/>
<path style="fill:#F9B428;" d="M397.384,38.808H114.617c-6.6,0-12-5.4-12-12V12c0-6.6,5.4-12,12-12h282.767c6.6,0,12,5.4,12,12
	v14.808C409.384,33.408,403.984,38.808,397.384,38.808z"/>
<path style="fill:#E59F23;" d="M397.021,18.152H114.98c-5.661,0-10.452-3.861-11.903-9.076c-0.292,1.049-0.46,2.148-0.46,3.287
	v14.082c0,6.8,5.563,12.363,12.363,12.363h282.041c6.8,0,12.363-5.563,12.363-12.363V12.363c0-1.139-0.169-2.238-0.46-3.287
	C407.473,14.291,402.682,18.152,397.021,18.152z"/>
<path style="fill:#707487;" d="M378.053,512H133.948c-6.6,0-12-5.4-12-12v-83.426c0-6.6,5.4-12,12-12h244.105c6.6,0,12,5.4,12,12
	V500C390.053,506.6,384.653,512,378.053,512z"/>
<g>
	<path style="fill:#5E6377;" d="M142.553,499.637v-82.7c0-6.8,5.563-12.363,12.363-12.363h-20.605
		c-6.799,0-12.363,5.563-12.363,12.363v82.7c0,6.8,5.563,12.363,12.363,12.363h20.605C148.116,512,142.553,506.437,142.553,499.637z
		"/>
	<path style="fill:#5E6377;" d="M332.85,466.014H179.151c-4.267,0-7.727-3.459-7.727-7.727c0-4.267,3.459-7.727,7.727-7.727H332.85
		c4.267,0,7.727,3.459,7.727,7.727C340.576,462.555,337.117,466.014,332.85,466.014z"/>
</g>
<g>
</g>
<g>
</g>
<g>
</g>
<g>
</g>
<g>
</g>
<g>
</g>
<g>
</g>
<g>
</g>
<g>
</g>
<g>
</g>
<g>
</g>
<g>
</g>
<g>
</g>
<g>
</g>
<g>
</g>
</svg>
