<?xml version="1.0" encoding="UTF-8" standalone="no"?>
<!-- Generator: Adobe Illustrator 19.0.0, SVG Export Plug-In . SVG Version: 6.00 Build 0)  -->

<svg
   version="1.1"
   id="Capa_1"
   x="0px"
   y="0px"
   viewBox="0 0 512 512"
   style="enable-background:new 0 0 512 512;"
   xml:space="preserve"
   sodipodi:docname="dislike_red.svg"
   inkscape:version="1.1 (c68e22c387, 2021-05-23)"
   xmlns:inkscape="http://www.inkscape.org/namespaces/inkscape"
   xmlns:sodipodi="http://sodipodi.sourceforge.net/DTD/sodipodi-0.dtd"
   xmlns="http://www.w3.org/2000/svg"
   xmlns:svg="http://www.w3.org/2000/svg"><defs
   id="defs101" /><sodipodi:namedview
   id="namedview99"
   pagecolor="#ffffff"
   bordercolor="#666666"
   borderopacity="1.0"
   inkscape:pageshadow="2"
   inkscape:pageopacity="0.0"
   inkscape:pagecheckerboard="0"
   showgrid="false"
   inkscape:zoom="1.0330388"
   inkscape:cx="322.83395"
   inkscape:cy="241.03644"
   inkscape:window-width="1920"
   inkscape:window-height="986"
   inkscape:window-x="-11"
   inkscape:window-y="1609"
   inkscape:window-maximized="1"
   inkscape:current-layer="Capa_1" />
<g
   id="g60">
	<g
   id="g58">
		<path
   d="M117.333,10.667h-64C23.936,10.667,0,34.603,0,64v170.667C0,264.064,23.936,288,53.333,288h96V21.461    C140.395,14.72,129.344,10.667,117.333,10.667z"
   id="path56" />
	</g>
</g>
<g
   id="g66">
	<g
   id="g64">
		<path
   d="M512,208c0-18.496-10.581-34.731-26.347-42.667c3.285-6.549,5.013-13.803,5.013-21.333    c0-18.517-10.603-34.752-26.368-42.688c4.885-9.728,6.315-20.928,3.861-32.043C463.381,47.659,443.051,32,419.819,32H224    c-13.995,0-35.968,4.416-53.333,12.608v228.651l2.56,1.301l61.44,133.12V480c0,3.243,1.472,6.315,3.989,8.341    c0.683,0.512,16.512,12.992,38.677,12.992c24.683,0,64-39.061,64-85.333c0-29.184-10.453-65.515-16.981-85.333h131.776    c28.715,0,53.141-21.248,55.637-48.363c1.387-15.211-3.691-29.824-13.653-40.725C506.923,232.768,512,220.821,512,208z"
   id="path62" />
	</g>
</g>
<g
   id="g68">
</g>
<g
   id="g70">
</g>
<g
   id="g72">
</g>
<g
   id="g74">
</g>
<g
   id="g76">
</g>
<g
   id="g78">
</g>
<g
   id="g80">
</g>
<g
   id="g82">
</g>
<g
   id="g84">
</g>
<g
   id="g86">
</g>
<g
   id="g88">
</g>
<g
   id="g90">
</g>
<g
   id="g92">
</g>
<g
   id="g94">
</g>
<g
   id="g96">
</g>
<path
   style="fill:#d40000;stroke:none;stroke-width:0.684492"
   d="M 42.346313,286.46457 C 32.36798,284.29448 24.194817,279.76742 16.386405,272.08556 7.8574155,263.69481 2.7782188,253.95011 1.0366862,242.63636 0.53274866,239.36256 0.36375663,209.12712 0.49925599,146.48128 0.72046566,44.208739 0.29301924,52.781578 5.7380789,41.411765 11.107996,30.198856 19.010708,22.196818 30.117647,16.725781 c 11.321291,-5.576623 9.850744,-5.431663 55.101604,-5.431663 36.384939,0 40.449209,0.112069 44.491979,1.226829 5.16715,1.424801 10.49378,3.757783 15.57219,6.820392 l 3.59359,2.167162 V 154.49757 287.48663 l -51.16578,-0.0544 c -39.934131,-0.0424 -52.087549,-0.25488 -55.364917,-0.96764 z"
   id="path220" /><path
   style="fill:#ff2a2a;stroke-width:0.684492"
   d="m 269.00535,500.40096 c -9.55961,-1.57065 -22.25097,-6.66318 -28.97245,-11.62546 -5.0641,-3.73869 -4.90991,-2.35848 -4.90991,-43.94816 v -37.09899 l -30.90033,-66.95082 c -21.87476,-47.39537 -31.27152,-67.06863 -32.17113,-67.35415 -1.23134,-0.39082 -1.27078,-3.93852 -1.27078,-114.31121 V 45.204294 l 2.56684,-1.306153 c 6.33237,-3.22226 20.54454,-7.447967 34.05348,-10.125129 5.71477,-1.132535 13.66239,-1.23726 109.86096,-1.44762 74.92976,-0.163851 105.21069,-0.0108 109.14369,0.551653 18.64837,2.666883 34.42106,15.220036 39.96517,31.807447 3.95599,11.835937 3.30599,22.587549 -2.17253,35.935828 -0.3012,0.73387 0.75794,1.70166 3.71316,3.39291 6.51844,3.73043 13.63425,11.68171 17.28876,19.31862 4.00407,8.36743 4.90097,12.34333 4.8361,21.4382 -0.0469,6.57298 -0.32907,8.33864 -2.22151,13.89991 -1.19229,3.50377 -2.16781,6.48333 -2.16781,6.62123 0,0.13791 2.14179,1.6746 4.75952,3.41486 17.12508,11.38473 25.15295,33.47306 19.16335,52.72711 -1.97965,6.36375 -3.98687,10.20737 -8.20343,15.70872 l -3.50064,4.5673 2.71085,3.55183 c 6.50385,8.52154 10.21802,18.50474 10.87077,29.21925 0.55542,9.11681 -0.93171,16.12084 -5.36415,25.26387 -3.01314,6.21537 -4.25269,7.9263 -9.72031,13.41685 -3.7721,3.78793 -8.17413,7.4096 -11.05821,9.09791 -6.11322,3.57861 -15.50106,6.70388 -22.91252,7.62773 -3.7123,0.46274 -29.64577,0.72301 -72.04278,0.72301 -36.4334,0 -66.24256,0.12889 -66.24256,0.28642 0,0.15754 1.09986,3.77679 2.44412,8.04278 10.3132,32.7287 15.9531,66.86408 13.99199,84.68627 -3.01308,27.38226 -18.96279,54.39942 -40.62346,68.81193 -10.81195,7.19403 -20.46494,9.68077 -30.91425,7.96393 z"
   id="path333" /><path
   style="fill:#ff2a2a;stroke-width:0.684492"
   d="m 84.534759,286.82165 -42.780748,-0.36176 -5.811256,-2.2367 C 20.115891,278.13154 8.4430587,265.82114 2.9517322,249.43019 L 1.368984,244.70588 v -94.80214 c 0,-74.702123 0.1860971,-95.600331 0.8777312,-98.566842 C 3.4345983,46.24191 7.9621633,37.388722 12.284194,31.709639 17.095811,25.387248 22.509782,21.159265 31.486631,16.713699 41.736262,11.63782 43.455044,11.493614 90.352941,11.774796 L 128,12.000513 l 5.77884,2.213926 c 3.17835,1.217658 7.87568,3.459641 10.4385,4.982182 l 4.65967,2.768258 V 154.72576 287.48663 l -10.78075,-0.15161 c -5.92942,-0.0834 -30.03209,-0.31441 -53.561501,-0.51337 z"
   id="path446" /><path
   style="fill:#ff2a2a;stroke-width:0.0855615"
   d="M 35.208556,146.39572 V 94.459893 h 56.812835 56.812829 v 51.935827 51.93583 H 92.021391 35.208556 Z"
   id="path485" /><path
   style="fill:#ff2a2a;stroke-width:0.0855615"
   d="M 35.208556,146.39572 V 94.459893 h 56.812835 56.812829 v 51.935827 51.93583 l -64.299461,88.4901 -49.326203,-88.4901 z"
   id="path524"
   sodipodi:nodetypes="ccccccccc" /></svg>
