<?xml version="1.0" encoding="UTF-8" standalone="no"?>
<!-- Generator: Adobe Illustrator 19.0.0, SVG Export Plug-In . SVG Version: 6.00 Build 0)  -->

<svg
   version="1.1"
   id="Capa_1"
   x="0px"
   y="0px"
   viewBox="0 0 512 512"
   style="enable-background:new 0 0 512 512;"
   xml:space="preserve"
   sodipodi:docname="like.svg"
   inkscape:version="1.1 (c68e22c387, 2021-05-23)"
   xmlns:inkscape="http://www.inkscape.org/namespaces/inkscape"
   xmlns:sodipodi="http://sodipodi.sourceforge.net/DTD/sodipodi-0.dtd"
   xmlns="http://www.w3.org/2000/svg"
   xmlns:svg="http://www.w3.org/2000/svg"><defs
   id="defs897" /><sodipodi:namedview
   id="namedview895"
   pagecolor="#ffffff"
   bordercolor="#666666"
   borderopacity="1.0"
   inkscape:pageshadow="2"
   inkscape:pageopacity="0.0"
   inkscape:pagecheckerboard="0"
   showgrid="false"
   inkscape:zoom="1.5273438"
   inkscape:cx="255.67263"
   inkscape:cy="253.05371"
   inkscape:window-width="1920"
   inkscape:window-height="986"
   inkscape:window-x="-11"
   inkscape:window-y="1609"
   inkscape:window-maximized="1"
   inkscape:current-layer="Capa_1" />
<g
   id="g856">
	<g
   id="g854">
		<path
   d="M53.333,224C23.936,224,0,247.936,0,277.333V448c0,29.397,23.936,53.333,53.333,53.333h64    c12.011,0,23.061-4.053,32-10.795V224H53.333z"
   id="path852"
   style="fill:#5599ff" />
	</g>
</g>
<g
   id="g862"
   style="fill:#5599ff">
	<g
   id="g860"
   style="fill:#5599ff">
		<path
   d="M512,304c0-12.821-5.077-24.768-13.888-33.579c9.963-10.901,15.04-25.515,13.653-40.725    c-2.496-27.115-26.923-48.363-55.637-48.363H324.352c6.528-19.819,16.981-56.149,16.981-85.333c0-46.272-39.317-85.333-64-85.333    c-22.165,0-37.995,12.48-38.677,12.992c-2.517,2.027-3.989,5.099-3.989,8.341v72.341l-61.44,133.099l-2.56,1.301v228.651    C188.032,475.584,210.005,480,224,480h195.819c23.232,0,43.563-15.659,48.341-37.269c2.453-11.115,1.024-22.315-3.861-32.043    c15.765-7.936,26.368-24.171,26.368-42.688c0-7.552-1.728-14.784-5.013-21.333C501.419,338.731,512,322.496,512,304z"
   id="path858"
   style="fill:#5599ff" />
	</g>
</g>
<g
   id="g864">
</g>
<g
   id="g866">
</g>
<g
   id="g868">
</g>
<g
   id="g870">
</g>
<g
   id="g872">
</g>
<g
   id="g874">
</g>
<g
   id="g876">
</g>
<g
   id="g878">
</g>
<g
   id="g880">
</g>
<g
   id="g882">
</g>
<g
   id="g884">
</g>
<g
   id="g886">
</g>
<g
   id="g888">
</g>
<g
   id="g890">
</g>
<g
   id="g892">
</g>
</svg>
